<svg width="1107" height="1053" viewBox="0 0 1107 1053" fill="none" xmlns="http://www.w3.org/2000/svg">
<path d="M939.476 660.869C971.268 571.949 972.041 471.554 934.113 377.254C894.652 279.14 820.408 205.29 731.293 163.957L731.288 163.945C731.206 163.888 731.119 163.894 731.055 163.845C638.272 120.896 529.422 113.295 426.74 150.565L426.722 150.557L419.415 153.273C417.521 153.961 415.626 154.648 413.745 155.405C411.864 156.161 410.022 156.977 408.179 157.792L401.052 160.882L401.044 160.9C301.152 205.105 227.877 285.956 190.67 381.187C190.644 381.272 190.578 381.328 190.57 381.421L190.568 381.451C154.87 472.968 152.435 577.659 191.896 675.773C229.823 770.073 299.894 841.974 384.4 884.12C384.523 884.204 384.574 884.332 384.71 884.411C385.069 884.638 385.464 884.658 385.825 884.855C480.544 931.619 593.219 940.967 699.287 902.469L699.305 902.477L706.587 899.771C708.489 899.066 710.383 898.379 712.264 897.622C714.145 896.865 715.988 896.05 717.83 895.234L724.958 892.145L724.965 892.127C828.261 846.404 903.152 761.513 939.053 662.035C939.132 661.751 939.375 661.579 939.436 661.287C939.497 661.143 939.445 661.015 939.476 660.869ZM222.956 678.147L376.557 616.369C399.821 670.033 431.616 718.482 470.341 760.278C439.243 788.084 411.551 819.738 387.807 854.889C316.918 817.138 257.836 756.442 222.956 678.147ZM212.981 400.03C253.147 407.929 293.716 410.88 334.056 409.047C333.542 470.312 344.355 531.794 366.263 590.775L212.663 652.553C182.23 568.054 184.342 479.118 212.981 400.03ZM903.053 374.88L749.452 436.657C724.421 378.932 689.653 327.085 646.863 283.237C677.238 256.628 704.467 226.41 727.978 192.899C803.402 230.133 866.504 292.841 903.053 374.88ZM477.961 352.031C440.543 365.861 402.008 374.952 362.956 379.211C367.494 315.569 384.802 252.813 414.557 194.386L477.961 352.031ZM488.255 377.624L545.061 518.863L391.857 580.482C371.052 524.208 361.019 465.55 361.766 407.119C404.716 402.794 447.136 392.899 488.255 377.624ZM513.849 367.331C554.092 349.881 591.556 327.662 625.548 301.027C666.544 342.668 699.919 391.938 723.871 446.946L570.655 508.57L513.849 367.331ZM503.555 341.737L440.15 184.093C502.073 205.647 558.014 238.943 605.353 281.719C574.228 305.686 540.128 325.808 503.555 341.737ZM627.025 263.964C581.726 222.344 528.736 189.14 470.317 165.909C549.197 145.571 630.253 152.338 702.276 181.411C680.317 211.979 655.094 239.607 627.025 263.964ZM335.026 381.406C297.908 383.266 260.58 380.796 223.584 373.94C255.408 303.101 309.218 242.091 380.214 202.148C354.135 259.364 338.893 320.011 335.026 381.406ZM402.151 606.075L555.355 544.457L607.019 672.912C565.153 691.059 526.347 714.338 491.32 742.356C454.503 702.825 424.282 656.924 402.151 606.075ZM617.313 698.505L685.859 868.934C619.579 845.862 560.195 809.327 510.836 762.159C543.176 736.589 578.866 715.247 617.313 698.505ZM711.452 858.64L642.906 688.212C682.233 673.658 722.767 664.358 763.799 660.403C760.85 728.624 743.299 796.102 711.452 858.64ZM632.613 662.618L580.948 534.163L734.152 472.545C753.391 524.557 763.368 578.6 764.167 632.632C719.502 636.651 675.385 646.723 632.613 662.618ZM759.746 462.251L913.347 400.473C942.391 481.115 941.801 565.811 916.778 642.137C875.309 633.215 833.411 629.55 791.721 631.02C790.734 574.045 780.117 517.079 759.746 462.251ZM412.908 867.064C435.095 834.77 460.824 805.629 489.642 779.99C536.972 825.773 593.149 862.245 655.693 887.118C572.836 908.474 487.566 899.953 412.908 867.064ZM745.808 850.873C773.718 789.636 788.998 724.424 791.443 658.606C829.988 657.152 868.716 660.368 907.097 668.302C876.002 743.725 820.378 808.913 745.808 850.873Z" fill="url(#paint0_linear_27_27)"/>
<path d="M1023.62 305.196C998.106 304.456 908.69 312.512 930.268 313.786C934.903 314.176 944.305 314.173 951.15 314.136C968.227 314.238 982.427 318.677 996.172 328.27C1009.57 337.401 1014.81 346.747 1015.94 362.634C1017.41 389.042 998.361 417.978 963.384 442.582C917.735 474.617 826.671 519.815 718.115 564.839C701.496 572.058 685.358 578.957 682.881 580.948C680.47 582.548 676.814 583.935 675.569 583.722C673.908 583.439 655.761 589.592 635.204 597.345C614.647 605.099 587.741 614.986 575.527 618.935C563.247 623.274 550.484 627.933 547.109 630.173C543.801 632.022 540.079 633.8 538.833 633.587C537.587 633.374 515.503 640.062 490.177 648.208C390.671 680.292 284.907 706.478 206.435 718.014C183.639 721.361 179.769 721.504 160.252 718.168C114.094 710.68 94.5584 692.452 99.8381 661.565C102.445 646.316 109.9 632.702 124.735 615.922C132.219 607.141 135.231 602.022 134.935 598.753C134.424 594.239 134.424 594.239 121.194 601.635C96.5938 615.538 43.5799 653.155 34.5827 663.287C17.6861 682.129 17.3849 701.393 33.7602 723.105C45.2577 738.35 60.717 745.418 96.0794 751.061C117.257 754.681 130.33 755.708 147.059 755.348C202.43 753.948 298.351 735.335 405.48 706.163C461.114 690.724 550.483 662.942 558.477 658.675C560.339 657.786 569.03 654.443 577.588 651.882C586.146 649.321 611.672 640.002 634.506 631.43C859.255 546.712 1037.08 441.497 1080.06 367.558C1090.39 349.607 1091.72 339.371 1084.95 328.958C1081.88 324.41 1076.39 319.044 1073.33 316.913C1066.18 311.263 1040.22 305.619 1023.62 305.196Z" fill="white"/>
<defs>
<linearGradient id="paint0_linear_27_27" x1="201.342" y1="515.685" x2="1177.11" y2="630.361" gradientUnits="userSpaceOnUse">
<stop stop-color="#9D5BF5"/>
<stop offset="1" stop-color="#0AB3D5"/>
</linearGradient>
</defs>
</svg>
